<svg xmlns="http://www.w3.org/2000/svg" viewBox="0 0 31.41 30.64"><defs><style>.cls-1{fill:none;stroke:#000;stroke-linecap:round;stroke-miterlimit:10;stroke-width:2px;}</style></defs><g id="레이어_2" data-name="레이어 2"><g id="레이어_2-2" data-name="레이어 2"><path class="cls-1" d="M2.18,9.92,3.59,8v0a15,15,0,0,1,5-5,14.7,14.7,0,0,1,15.79.8,14.51,14.51,0,0,1,5.91,13.62,14.21,14.21,0,0,1-8.57,11.28A14.59,14.59,0,0,1,5.5,24.68"/><polygon points="10.37 9.43 10.06 7.9 2.52 9.43 1.55 1.79 0 1.99 1.19 11.29 10.37 9.43"/><polyline class="cls-1" points="15.8 5.63 15.8 15.32 11.3 19.84"/></g></g></svg>