<svg xmlns="http://www.w3.org/2000/svg" viewBox="0 0 35 35"><g id="레이어_2" data-name="레이어 2"><g id="레이어_2-2" data-name="레이어 2"><polygon points="18.24 9.56 16.76 9.56 16.76 16.76 9.56 16.76 9.56 18.24 16.76 18.24 16.76 25.44 18.24 25.44 18.24 18.24 25.44 18.24 25.44 16.76 18.24 16.76 18.24 9.56"/><path d="M24,0H11A11,11,0,0,0,0,11V24A11,11,0,0,0,11,35H24A11,11,0,0,0,35,24V11A11,11,0,0,0,24,0ZM33.6,23.78a9.85,9.85,0,0,1-9.82,9.82H11.22A9.85,9.85,0,0,1,1.4,23.78V11.22A9.85,9.85,0,0,1,11.22,1.4H23.78a9.85,9.85,0,0,1,9.82,9.82Z"/></g></g></svg>