<svg xmlns="http://www.w3.org/2000/svg" viewBox="0 0 30.28 30.61"><defs><style>.cls-1{fill:none;stroke:#000;stroke-linecap:round;stroke-miterlimit:10;stroke-width:2px;}</style></defs><g id="레이어_2" data-name="레이어 2"><g id="레이어_2-2" data-name="레이어 2"><path d="M1.45,12a1.5,1.5,0,0,0,0,3A1.5,1.5,0,0,0,1.45,12Z"/><path d="M4,5.42a1.5,1.5,0,0,0,0,3A1.5,1.5,0,0,0,4,5.42Z"/><path d="M9.3.86a1.5,1.5,0,0,0,0,3A1.5,1.5,0,0,0,9.3.86Z"/><path d="M2.27,18.45a1.5,1.5,0,0,0,0,3A1.5,1.5,0,0,0,2.27,18.45Z"/><polyline class="cls-1" points="15.25 5.42 15.25 15.11 10.75 19.63"/><path class="cls-1" d="M4.53,25A15.09,15.09,0,0,0,14.89,29.6a14.48,14.48,0,0,0,10.85-4.52,14.34,14.34,0,0,0,3.53-10,14.57,14.57,0,0,0-3.74-9.5A14.8,14.8,0,0,0,15.09,1"/></g></g></svg>