<svg xmlns="http://www.w3.org/2000/svg" viewBox="0 0 29.54 30.06"><defs><style>.cls-1{fill:#fff;stroke:#000;stroke-miterlimit:10;}</style></defs><g id="레이어_2" data-name="레이어 2"><g id="레이어_2-2" data-name="레이어 2"><path class="cls-1" d="M.66,12.67C-.45,19.81,4.71,24.85,5.07,25.19a15.62,15.62,0,0,0,10.35,3.93,14.44,14.44,0,0,0,4.84-.95,1.13,1.13,0,0,1,.79,0c1.37.47,5.8,1.9,6.46,1.23s-.07-5.15-.34-6.56A1.22,1.22,0,0,1,27.3,22a14.68,14.68,0,0,0,1.6-4.66A15.64,15.64,0,0,0,26.41,6.58C26.12,6.18,21.84.37,14.62.5A14.69,14.69,0,0,0,.66,12.67Z"/></g></g></svg>