<svg xmlns="http://www.w3.org/2000/svg" viewBox="0 0 33.56 29.43"><defs><style>.cls-1{fill:#fff;stroke:#000;stroke-miterlimit:10;}</style></defs><g id="레이어_2" data-name="레이어 2"><g id="레이어_2-2" data-name="레이어 2"><path class="cls-1" d="M28.37,28.93c4.63,0,4.69-4.68,4.69-4.68V9.54s-.54-4.36-4.36-4.36-4.42-.9-5.59-2.47A5.88,5.88,0,0,0,19.39.5H14.17a5.86,5.86,0,0,0-3.72,2.21C9.27,4.28,8.68,5.18,4.86,5.18S.5,9.54.5,9.54V24.25s.06,4.68,4.68,4.68Z"/><path class="cls-1" d="M16.81,8.73a7.84,7.84,0,1,0,7.83,7.66A7.91,7.91,0,0,0,16.81,8.73Z"/></g></g></svg>