<svg xmlns="http://www.w3.org/2000/svg" viewBox="0 0 31.57 31.42"><defs><style>.cls-1{fill:none;stroke:#000;stroke-linecap:round;stroke-miterlimit:10;stroke-width:1.8px;}</style></defs><g id="레이어_2" data-name="레이어 2"><g id="레이어_2-2" data-name="레이어 2"><path d="M6.92,8.52,4.63,6.82a.24.24,0,0,0-.3,0L2,8.47a.26.26,0,0,1-.39-.29l.91-2.71a.24.24,0,0,0-.09-.28L.14,3.48A.26.26,0,0,1,.29,3l2.86,0a.27.27,0,0,0,.25-.17L4.31.17a.25.25,0,0,1,.48,0l.86,2.73a.25.25,0,0,0,.24.17l2.85,0a.25.25,0,0,1,.15.46L6.56,5.23a.27.27,0,0,0-.1.29l.85,2.72A.25.25,0,0,1,6.92,8.52Z"/><line class="cls-1" x1="12.48" y1="4.95" x2="30.67" y2="4.95"/><path d="M6.92,20,4.63,18.24a.27.27,0,0,0-.3,0L2,19.89a.25.25,0,0,1-.39-.29l.91-2.7a.25.25,0,0,0-.09-.29L.14,14.91a.25.25,0,0,1,.15-.46l2.86,0a.27.27,0,0,0,.25-.18l.91-2.7a.25.25,0,0,1,.48,0l.86,2.73a.25.25,0,0,0,.24.18l2.85,0a.25.25,0,0,1,.15.46L6.56,16.66a.26.26,0,0,0-.1.28l.85,2.73A.25.25,0,0,1,6.92,20Z"/><line class="cls-1" x1="12.48" y1="16.37" x2="30.67" y2="16.37"/><path d="M6.88,31.37l-2.29-1.7a.26.26,0,0,0-.3,0L2,31.32A.26.26,0,0,1,1.57,31l.91-2.71A.25.25,0,0,0,2.4,28L.1,26.33a.26.26,0,0,1,.16-.46l2.85,0a.27.27,0,0,0,.25-.17L4.27,23a.26.26,0,0,1,.49,0l.85,2.72a.25.25,0,0,0,.24.18l2.86,0a.25.25,0,0,1,.14.46L6.52,28.08a.25.25,0,0,0-.09.29l.85,2.72A.26.26,0,0,1,6.88,31.37Z"/><line class="cls-1" x1="12.45" y1="27.8" x2="30.63" y2="27.8"/></g></g></svg>