<svg xmlns="http://www.w3.org/2000/svg" viewBox="0 0 32.58 30.42"><defs><style>.cls-1{fill:none;stroke:#000;stroke-miterlimit:10;}</style></defs><g id="레이어_2" data-name="레이어 2"><g id="레이어_2-2" data-name="레이어 2"><path class="cls-1" d="M16.37.62,31.55,15.34a1,1,0,0,1,.34.78s.19,11,.19,11.84A1.7,1.7,0,0,1,30.4,29.7c-1.56,0-8.54.14-9.41.14a1.41,1.41,0,0,1-1.61-1.55l-.12-7.71a1,1,0,0,0-.11-.46,3.21,3.21,0,0,0-5.85.05,1,1,0,0,0-.1.46v7.7c0,1.51-.33,1.59-1.58,1.59H2.21C.64,29.92.5,29.4.5,28.21V16.36a1.11,1.11,0,0,1,.33-.78l15-15A.42.42,0,0,1,16.37.62Z"/></g></g></svg>