<svg xmlns="http://www.w3.org/2000/svg" viewBox="0 0 35.2 30.98"><defs><style>.cls-1{fill:#ff4646;}</style></defs><g id="레이어_2" data-name="레이어 2"><g id="레이어_2-2" data-name="레이어 2"><path class="cls-1" d="M18.12,2.65a.64.64,0,0,1-.89,0,9,9,0,0,0-3.07-2,9.74,9.74,0,0,0-6.89,0A11.5,11.5,0,0,0,1.66,5.38c-3.34,5.72-.85,11.39.59,12.71.79.74,1.48,1.36,1.56,1.42l12.4,11a1.87,1.87,0,0,0,2.45,0L31.25,19.75l1.58-1.39c1.46-1.3,4.05-6.93.81-12.7A11.5,11.5,0,0,0,28.11.83,9.71,9.71,0,0,0,21.23.69,9.16,9.16,0,0,0,18.12,2.65Z"/></g></g></svg>