<svg xmlns="http://www.w3.org/2000/svg" viewBox="0 0 55.73 57.25"><g id="레이어_2" data-name="레이어 2"><g id="레이어_2-2" data-name="레이어 2"><path d="M39.07,0H16.65A16.7,16.7,0,0,0,0,16.65v24A16.7,16.7,0,0,0,16.65,57.25H39.07A16.7,16.7,0,0,0,55.73,40.6v-24A16.7,16.7,0,0,0,39.07,0Zm12.5,40.68A12.34,12.34,0,0,1,39.27,53H16.46a12.34,12.34,0,0,1-12.3-12.3V16.57a12.34,12.34,0,0,1,12.3-12.3H39.27a12.34,12.34,0,0,1,12.3,12.3Z"/><path d="M27.86,13.09A15.54,15.54,0,1,0,43.4,28.63,15.53,15.53,0,0,0,27.86,13.09Zm0,25.72A10.19,10.19,0,1,1,38.05,28.63,10.18,10.18,0,0,1,27.86,38.81Z"/><circle cx="43.4" cy="13.09" r="3.68"/></g></g></svg>