<svg xmlns="http://www.w3.org/2000/svg" viewBox="0 0 32.33 27.88"><defs><style>.cls-1{fill:none;stroke:#000;stroke-miterlimit:10;}</style></defs><g id="레이어_2" data-name="레이어 2"><g id="레이어_2-2" data-name="레이어 2"><path class="cls-1" d="M17,3.27a1.19,1.19,0,0,1-1.69,0A9.31,9.31,0,0,0,8,.54C3.22,1,1.24,5.63,1.12,5.94A9.75,9.75,0,0,0,1,12.29a13.1,13.1,0,0,0,1.76,3.64,25.57,25.57,0,0,0,2,2.33c2.37,2.68,8.62,7.33,10.75,8.88a1.22,1.22,0,0,0,1.45,0c2.12-1.55,8.37-6.2,10.74-8.88a22.66,22.66,0,0,0,2-2.33,12.82,12.82,0,0,0,1.76-3.64,9.66,9.66,0,0,0-.14-6.35C31.08,5.63,29.1,1,24.29.54A9.31,9.31,0,0,0,17,3.27Z"/></g></g></svg>