<svg xmlns="http://www.w3.org/2000/svg" viewBox="0 0 30.71 30.96"><defs><style>.cls-1{fill:none;stroke:#000;stroke-linejoin:round;stroke-width:1.1px;}</style></defs><g id="레이어_2" data-name="레이어 2"><g id="레이어_2-2" data-name="레이어 2"><path class="cls-1" d="M4.46,4.33a12.9,12.9,0,0,0-3.82,7.6,13.08,13.08,0,0,0,2.94,9.7,13.52,13.52,0,0,0,10.57,5,13.23,13.23,0,0,0,8.63-3.74l7.38,7.49-7.35-7.52a13.18,13.18,0,0,0,3.84-8.54c.29-6.21-4.19-10.08-4.87-10.65A13.12,13.12,0,0,0,12.12.62,12.94,12.94,0,0,0,4.46,4.33Z"/></g></g></svg>