<svg xmlns="http://www.w3.org/2000/svg" viewBox="0 0 31.01 31.01"><g id="레이어_2" data-name="레이어 2"><g id="레이어_2-2" data-name="레이어 2"><path d="M30.74,13.43c-1.91-.54-1.44-.16-2.82-2.88S26.57,8.37,27.31,6a.32.32,0,0,0,0-.35L25.39,3.74A.34.34,0,0,0,25,3.69c-2.39.75-1.71.84-4.57-.61s-2.34-.9-2.88-2.81A.35.35,0,0,0,17.24,0H13.77a.35.35,0,0,0-.34.27c-.54,1.91-.16,1.43-2.88,2.81S8.37,4.44,6,3.69a.32.32,0,0,0-.35.05L3.74,5.62A.32.32,0,0,0,3.69,6c.75,2.4.84,1.72-.61,4.58s-.9,2.34-2.81,2.88a.35.35,0,0,0-.27.34v3.47a.35.35,0,0,0,.27.34c1.91.54,1.43.16,2.81,2.88s1.36,2.18.61,4.57a.34.34,0,0,0,.05.36l1.88,1.88a.32.32,0,0,0,.35,0c2.4-.74,1.72-.84,4.58.61s2.34.91,2.88,2.82a.36.36,0,0,0,.34.27h3.47a.36.36,0,0,0,.34-.27c.54-1.91.16-1.44,2.88-2.82s2.18-1.35,4.57-.61a.33.33,0,0,0,.36,0l1.88-1.88a.33.33,0,0,0,0-.36c-.74-2.39-.84-1.71.61-4.57s.91-2.34,2.82-2.88a.36.36,0,0,0,.27-.34V13.77A.36.36,0,0,0,30.74,13.43ZM15.5,27.3A11.8,11.8,0,1,1,27.3,15.5,11.79,11.79,0,0,1,15.5,27.3Z"/></g></g></svg>