<svg xmlns="http://www.w3.org/2000/svg" viewBox="0 0 29.18 29.12"><defs><style>.cls-1,.cls-2{fill:none;stroke:#000;stroke-width:2px;}.cls-1{stroke-miterlimit:10;}.cls-2{stroke-linecap:round;stroke-linejoin:round;}</style></defs><g id="레이어_2" data-name="레이어 2"><g id="레이어_2-2" data-name="레이어 2"><path class="cls-1" d="M1,13.93c.26,5.63,5.11,9,5.32,9.15a12.25,12.25,0,0,0,6.67,2,11.76,11.76,0,0,0,8.46-3.62l6.72,6.66-6.69-6.69A11.76,11.76,0,0,0,25.07,13,12.12,12.12,0,0,0,23,6.3c-.14-.21-3.54-5-9.17-5.29C6.68.65.71,7.2,1,13.93Z"/><path class="cls-2" d="M1,13.93c.26,5.63,5.11,9,5.32,9.15a12.25,12.25,0,0,0,6.67,2,11.76,11.76,0,0,0,8.46-3.62l6.72,6.66-6.69-6.69A11.76,11.76,0,0,0,25.07,13,12.12,12.12,0,0,0,23,6.3c-.14-.21-3.54-5-9.17-5.29C6.68.65.71,7.2,1,13.93Z"/></g></g></svg>