<svg xmlns="http://www.w3.org/2000/svg" viewBox="0 0 28.43 28.21"><defs><style>.cls-1{fill:none;stroke:#000;stroke-miterlimit:10;stroke-width:1.5px;}</style></defs><g id="레이어_2" data-name="레이어 2"><g id="레이어_2-2" data-name="레이어 2"><path class="cls-1" d="M14.22,7.86a4.89,4.89,0,0,1,4.94,5,4.85,4.85,0,0,1-9.69,0A4.86,4.86,0,0,1,14.22,7.86Z"/><path class="cls-1" d="M14.42.84l2.51,2.49a.74.74,0,0,0,.52.22h8a2.13,2.13,0,0,1,2.19,2c0,.8,0,18.79,0,20s-.69,1.88-1.8,1.88H2.57c-1.11,0-1.76-.63-1.81-1.88s0-19.25,0-20a2.12,2.12,0,0,1,2.19-2h8a.75.75,0,0,0,.53-.22L14,.84A.29.29,0,0,1,14.42.84Z"/><path class="cls-1" d="M22.76,27.46c0-2.34-1-6.06-3.8-6.28H9.46c-2.85.22-3.79,3.94-3.79,6.28"/></g></g></svg>